<?xml version="1.0" standalone="no"?>
<!DOCTYPE svg PUBLIC "-//W3C//DTD SVG 20010904//EN"
 "http://www.w3.org/TR/2001/REC-SVG-20010904/DTD/svg10.dtd">
<svg version="1.0" xmlns="http://www.w3.org/2000/svg"
 width="1310.000000pt" height="1310.000000pt" viewBox="0 0 1310.000000 1310.000000"
 preserveAspectRatio="xMidYMid meet">
<metadata>
Created by potrace 1.14, written by Peter Selinger 2001-2017
</metadata>
<g transform="translate(0.000000,1310.000000) scale(0.100000,-0.100000)"
fill="#000000" stroke="none">
<path d="M6298 11795 c-2 -1 -61 -6 -133 -9 -71 -4 -139 -9 -150 -11 -11 -2
-47 -7 -80 -10 -308 -31 -736 -126 -1035 -230 -58 -20 -109 -37 -115 -39 -74
-22 -443 -177 -522 -219 -18 -10 -34 -16 -35 -15 -2 2 -16 -7 -33 -18 -16 -12
-50 -31 -75 -43 -25 -12 -67 -35 -95 -51 -27 -16 -61 -35 -75 -42 -41 -21
-175 -102 -180 -109 -3 -3 -20 -14 -39 -24 -19 -9 -39 -21 -45 -26 -6 -5 -69
-50 -141 -101 -71 -50 -132 -94 -135 -97 -3 -3 -50 -42 -105 -86 -55 -43 -105
-84 -111 -90 -6 -5 -33 -28 -60 -50 -149 -121 -534 -531 -708 -755 -110 -142
-295 -422 -368 -559 -23 -42 -44 -78 -47 -81 -11 -9 -150 -285 -186 -370 -168
-388 -265 -682 -340 -1035 -2 -11 -6 -31 -10 -45 -3 -14 -12 -63 -20 -110 -8
-47 -17 -94 -19 -106 -2 -12 -7 -45 -11 -75 -3 -30 -8 -65 -10 -79 -44 -254
-54 -870 -20 -1170 11 -98 17 -158 20 -190 2 -19 9 -66 15 -105 7 -38 14 -83
16 -100 3 -16 9 -51 15 -76 6 -26 12 -53 13 -60 33 -177 122 -494 203 -721
l38 -108 40 3 c22 1 39 7 38 12 -1 6 -18 55 -38 110 -109 302 -194 620 -229
860 -4 23 -9 52 -11 65 -3 14 -8 41 -11 60 -2 19 -7 46 -9 60 -3 14 -7 50 -10
80 -3 30 -8 71 -10 90 -27 218 -27 801 0 1025 2 17 7 57 10 90 12 114 26 209
42 290 2 11 6 38 8 60 6 48 61 279 100 420 52 190 162 500 238 670 39 87 208
424 243 485 158 271 342 532 563 795 93 111 400 420 501 505 36 30 67 57 70
61 10 12 246 196 295 230 27 18 55 39 61 44 47 40 250 169 408 259 104 60 388
206 400 206 2 0 37 15 78 34 241 111 598 230 903 299 149 35 184 41 260 52 22
4 47 8 55 10 8 2 38 7 65 10 28 3 64 7 80 10 17 2 57 7 90 11 33 3 68 8 77 9
101 19 706 27 883 12 50 -4 113 -10 140 -12 28 -3 64 -7 80 -9 17 -2 55 -7 85
-11 179 -21 461 -78 655 -131 120 -33 258 -75 270 -82 6 -4 15 -7 20 -8 6 -1
82 -29 170 -62 327 -122 644 -282 962 -483 54 -34 100 -66 101 -71 2 -4 8 -8
13 -8 6 0 15 -5 22 -10 19 -16 83 -64 107 -80 12 -8 28 -19 34 -25 6 -5 38
-30 71 -55 33 -25 62 -47 65 -50 3 -3 28 -23 55 -45 28 -21 52 -42 55 -45 3
-3 39 -34 80 -69 71 -60 378 -364 447 -442 37 -43 257 -318 294 -369 14 -19
48 -66 74 -105 27 -38 51 -72 55 -75 3 -3 21 -32 40 -65 19 -33 37 -62 40 -65
29 -22 255 -451 347 -655 64 -144 167 -425 217 -595 30 -103 101 -388 112
-450 4 -25 8 -47 9 -50 0 -3 4 -27 9 -53 4 -27 9 -59 12 -70 10 -50 44 -329
51 -417 15 -188 6 -852 -12 -920 -2 -8 -7 -44 -10 -80 -10 -103 -15 -144 -20
-160 -2 -8 -7 -31 -10 -50 -48 -299 -129 -623 -211 -850 -3 -8 -5 -16 -5 -17
0 -2 -9 -24 -20 -50 -12 -27 -25 -59 -29 -73 -4 -14 -11 -32 -14 -41 -6 -12 1
-15 36 -15 l43 0 28 76 c16 41 30 80 31 85 2 6 6 17 9 25 42 106 151 514 181
675 10 49 37 208 41 235 14 99 19 142 31 265 29 324 24 838 -11 1098 -3 20 -7
56 -10 80 -3 23 -8 53 -10 67 -3 14 -7 41 -10 60 -14 89 -46 258 -54 288 -6
18 -10 35 -10 37 0 3 -5 29 -10 58 -6 28 -13 62 -16 75 -2 13 -9 37 -15 55 -5
18 -22 73 -36 122 -27 95 -89 286 -104 320 -4 11 -20 52 -35 90 -86 226 -185
435 -317 670 -79 140 -176 304 -188 315 -3 3 -9 12 -15 21 -26 43 -167 242
-180 254 -6 6 -24 28 -40 50 -16 22 -31 42 -34 45 -4 3 -53 61 -110 130 -193
231 -534 557 -781 745 -36 28 -67 52 -70 55 -3 3 -21 17 -40 30 -19 13 -37 27
-40 30 -4 5 -137 94 -210 140 -59 38 -120 76 -145 90 -16 9 -84 48 -150 85
-161 92 -376 194 -570 272 -88 36 -164 66 -170 67 -5 2 -17 6 -25 9 -77 31
-430 136 -500 150 -14 2 -68 14 -120 25 -52 12 -108 24 -125 27 -16 2 -41 7
-55 10 -14 3 -52 10 -85 15 -33 6 -71 12 -85 14 -43 7 -192 25 -255 31 -33 3
-85 7 -115 11 -57 5 -616 14 -622 9z"/>
<path d="M6407 11564 c-1 -1 -63 -4 -137 -8 -201 -10 -398 -31 -565 -60 -11
-2 -38 -7 -60 -11 -22 -4 -49 -9 -60 -11 -374 -67 -961 -267 -1265 -431 -30
-17 -91 -49 -135 -72 -44 -23 -87 -46 -95 -51 -8 -5 -69 -42 -135 -82 -327
-197 -602 -414 -896 -707 -203 -204 -270 -278 -406 -451 -400 -511 -687 -1072
-867 -1698 -20 -68 -38 -133 -40 -145 -3 -12 -11 -51 -20 -87 -8 -36 -17 -76
-20 -90 -34 -172 -43 -219 -51 -285 -3 -16 -9 -61 -15 -100 -10 -71 -13 -104
-27 -275 -13 -169 -6 -668 12 -820 2 -19 7 -60 10 -90 13 -118 17 -149 36
-260 58 -341 162 -719 267 -975 l29 -70 786 -1 c432 0 785 2 783 5 -2 3 -29
50 -61 104 -190 327 -349 766 -409 1132 -42 254 -49 346 -50 630 -1 215 7 391
18 427 3 7 7 36 10 63 3 28 8 64 11 80 97 552 312 1056 640 1501 49 65 91 121
94 124 3 3 28 32 56 65 40 49 111 126 221 239 24 25 186 170 212 189 15 12 29
24 32 28 3 3 57 44 120 91 230 171 472 309 720 413 63 26 129 53 145 60 136
58 393 126 680 179 238 44 739 55 960 21 17 -2 75 -11 130 -20 219 -33 512
-105 630 -154 11 -5 74 -30 140 -56 575 -226 1121 -642 1497 -1140 279 -370
490 -808 603 -1254 38 -151 70 -321 80 -431 4 -36 8 -71 11 -78 7 -23 19 -274
18 -412 0 -122 -11 -337 -19 -350 -1 -3 -5 -32 -9 -65 -3 -33 -8 -71 -11 -85
-3 -13 -7 -40 -10 -60 -10 -69 -39 -196 -71 -315 -82 -301 -199 -576 -378
-886 l-26 -46 787 1 787 1 23 60 c80 203 191 571 223 730 5 28 12 61 15 75 10
49 45 246 51 295 3 28 8 58 10 69 2 10 6 51 10 90 3 39 7 82 10 96 16 99 21
418 10 635 -18 371 -46 571 -131 965 -59 270 -216 701 -366 1005 -92 189 -110
220 -210 387 -259 432 -635 874 -1019 1198 -36 30 -67 57 -70 60 -3 3 -41 33
-85 68 -44 34 -84 65 -90 70 -43 34 -226 162 -232 162 -3 0 -14 6 -22 14 -66
58 -500 294 -709 385 -257 112 -680 253 -892 296 -8 2 -49 10 -90 18 -78 17
-293 52 -370 61 -176 22 -205 24 -355 32 -127 6 -393 12 -398 8z m176 -506 c2
-7 1 -23 -4 -35 -7 -18 -15 -22 -48 -20 -31 2 -41 -1 -41 -13 -1 -8 0 -90 0
-182 l1 -167 -26 3 c-14 1 -28 6 -32 9 -3 4 -7 69 -9 144 -1 76 -3 154 -3 173
l-1 35 -50 -3 c-49 -4 -50 -4 -50 25 0 16 2 32 4 34 3 2 61 5 129 7 94 2 126
-1 130 -10z m-543 -48 c49 -25 52 -31 32 -58 l-17 -22 -40 20 c-112 59 -210
-43 -173 -178 14 -51 68 -102 107 -102 43 0 95 23 114 50 14 21 16 21 41 5 31
-20 24 -40 -27 -79 -79 -59 -180 -54 -248 14 -49 49 -72 165 -50 247 28 102
160 154 261 103z m-526 -82 c11 -41 7 -45 -73 -63 -102 -23 -104 -25 -96 -67
12 -62 14 -63 105 -40 l81 20 10 -25 c11 -29 12 -44 2 -41 -11 3 -146 -33
-155 -41 -4 -4 -1 -32 8 -62 l16 -56 91 28 c51 15 93 26 95 24 1 -1 6 -16 11
-32 l9 -30 -102 -28 c-153 -41 -154 -41 -162 -8 -3 15 -13 53 -21 83 -8 30
-18 71 -23 90 -18 76 -48 178 -54 188 -4 7 9 15 31 22 21 5 76 21 123 35 105
30 96 29 104 3z m2349 -68 c7 -6 -15 -95 -48 -198 -3 -7 -5 -13 -5 -15 0 -1
-14 -42 -30 -92 -28 -87 -30 -90 -57 -87 -15 2 -29 5 -31 7 -2 2 24 94 59 204
58 186 64 201 83 195 12 -3 25 -10 29 -14z m-2753 -251 c38 -96 70 -179 70
-186 0 -6 -9 -15 -21 -18 -15 -5 -53 13 -142 67 -67 40 -126 75 -132 77 -5 2
-23 13 -39 24 -35 24 -36 31 33 -138 l49 -120 -25 -13 c-14 -8 -29 -10 -33 -5
-5 4 -32 67 -60 138 -28 72 -57 144 -64 160 -38 89 -38 85 -11 95 21 8 33 5
65 -15 22 -14 44 -25 50 -25 5 0 10 -3 10 -8 0 -7 11 -14 66 -42 16 -8 47 -26
69 -41 22 -14 50 -31 62 -38 22 -11 22 -11 9 26 -8 21 -32 83 -55 137 -23 54
-40 100 -39 101 31 17 54 21 60 10 5 -7 39 -91 78 -186z m3018 162 c11 -7 36
-83 57 -171 24 -106 49 -189 54 -185 3 4 29 61 58 128 28 67 58 123 65 125 7
1 21 -3 31 -10 20 -15 23 -1 -43 -153 -10 -22 -34 -80 -55 -130 -45 -108 -48
-111 -76 -99 -18 8 -28 34 -55 145 -59 235 -55 225 -70 197 -7 -14 -26 -58
-43 -99 -63 -159 -58 -150 -89 -137 -15 7 -28 13 -30 14 -1 0 8 25 22 55 13
30 49 116 81 192 32 75 63 137 69 137 6 0 17 -4 24 -9z m-954 -107 c19 -18 19
-20 6 -45 -6 -10 -19 -19 -28 -19 -39 0 -57 50 -24 69 23 14 28 14 46 -5z
m-2651 -136 c13 -24 39 -70 57 -103 18 -33 42 -76 53 -95 60 -105 69 -121 66
-124 -31 -25 -46 -22 -208 49 -91 40 -167 71 -169 70 -3 -3 40 -82 114 -212
l24 -42 -27 -15 -28 -14 -55 97 c-120 208 -151 263 -148 265 2 1 10 7 20 14
14 11 42 2 183 -58 92 -39 169 -69 172 -67 2 3 -28 60 -66 128 -39 67 -70 123
-68 124 10 8 43 24 49 25 3 0 17 -19 31 -42z m4162 -42 c-10 -41 -55 -278 -55
-288 0 -6 17 5 38 23 21 19 50 43 63 54 14 11 51 42 82 69 55 46 59 48 87 36
17 -7 30 -16 30 -20 0 -5 -24 -27 -52 -51 -29 -23 -57 -48 -63 -54 -5 -6 -58
-49 -116 -96 -102 -83 -107 -86 -132 -73 -21 11 -25 19 -21 41 4 24 18 98 71
368 8 45 12 47 43 28 21 -12 28 -23 25 -37z m562 -349 l92 -70 -20 -28 -20
-28 -76 61 -75 61 -34 -39 -33 -39 22 -20 c28 -24 94 -77 109 -86 6 -4 4 -16
-7 -33 -10 -14 -19 -26 -21 -26 -3 0 -33 23 -68 50 -35 28 -68 50 -73 50 -5 0
-24 -20 -41 -44 l-32 -44 75 -59 c41 -32 74 -60 74 -63 0 -3 -7 -15 -17 -27
l-17 -23 -62 49 c-35 26 -74 56 -89 67 -45 33 -55 45 -46 58 5 6 41 52 78 101
143 186 167 214 178 208 6 -4 52 -38 103 -76z m-5233 51 c48 -15 106 -70 137
-129 76 -151 -68 -325 -229 -276 -79 25 -157 131 -161 219 -3 57 25 117 72
152 61 47 108 56 181 34z m5594 -370 c47 -29 82 -86 85 -139 2 -43 2 -44 -28
-41 -36 5 -32 1 -38 38 -7 47 -23 69 -59 87 -23 11 -37 13 -51 5 -23 -12 -20
-39 17 -123 37 -86 35 -128 -8 -171 -54 -54 -110 -47 -190 25 -32 30 -45 59
-53 119 l-5 42 33 0 c32 0 34 -2 37 -37 4 -57 48 -109 99 -118 51 -8 56 46 13
137 -47 99 -36 157 35 189 43 20 62 18 113 -13z m-6060 -25 c3 -28 1 -31 -39
-37 -47 -7 -94 -48 -105 -91 -11 -44 12 -99 61 -144 24 -22 53 -41 62 -42 10
0 27 -2 38 -4 12 -3 35 4 52 15 47 28 60 52 72 130 1 3 15 7 32 8 30 2 30 1
28 -35 -4 -52 -31 -104 -73 -141 -107 -94 -288 -16 -336 146 -11 33 -11 50 -1
83 18 59 74 116 130 133 63 18 75 15 79 -21z m6446 -393 c74 -92 75 -95 56
-112 -26 -24 -30 -23 -65 16 l-30 34 -135 -108 c-74 -60 -138 -109 -141 -110
-4 0 -14 11 -23 24 -15 24 -15 25 124 136 125 101 138 114 124 128 -9 8 -23
26 -32 39 -15 24 -15 26 9 44 13 10 27 15 31 11 3 -4 40 -50 82 -102z m-6773
-462 c11 -18 -2 -46 -24 -52 -38 -10 -63 34 -35 62 13 13 49 6 59 -10z m7199
-177 c0 -4 -82 -52 -182 -108 l-183 -100 -17 25 c-20 31 -23 28 92 90 41 22
116 63 165 91 l90 51 18 -21 c9 -12 17 -24 17 -28z m-7817 -191 c6 -5 -45
-131 -70 -173 -3 -6 77 -47 93 -47 3 0 21 36 41 80 l36 79 28 -15 c32 -16 34
-6 -21 -127 -12 -27 -20 -50 -18 -51 41 -23 103 -45 108 -39 4 4 22 43 41 85
34 78 44 87 79 68 18 -9 16 -16 -27 -108 -25 -53 -49 -107 -54 -119 l-8 -22
-61 30 c-33 16 -62 29 -65 29 -4 0 -243 110 -254 117 -2 2 20 55 49 118 47
102 56 115 74 109 12 -3 25 -10 29 -14z m7913 -127 c-18 -32 -44 -78 -58 -103
-14 -25 -40 -71 -57 -102 -18 -32 -29 -58 -24 -58 4 0 64 25 133 55 69 30 128
51 132 47 4 -4 9 -18 10 -30 3 -20 -15 -30 -181 -102 -101 -44 -187 -80 -192
-80 -4 0 -11 9 -14 21 -7 23 10 63 65 154 20 33 53 90 73 126 l37 67 -68 -28
c-37 -15 -93 -39 -126 -54 -32 -14 -65 -26 -73 -26 -12 0 -29 33 -26 50 1 2
86 41 190 85 l188 81 13 -22 c11 -20 8 -30 -22 -81z m-8015 -380 c16 -10 37
-34 46 -54 14 -32 20 -36 42 -32 170 31 172 32 165 9 -3 -12 -7 -28 -10 -36
-2 -9 -13 -16 -24 -17 -12 -1 -55 -9 -96 -19 -63 -14 -77 -20 -85 -41 -16 -42
-11 -47 69 -71 74 -23 79 -25 74 -49 -6 -33 -20 -37 -73 -19 -24 8 -110 35
-191 61 -82 26 -148 50 -148 54 0 12 49 154 61 177 26 51 114 70 170 37z m-31
-507 c73 -30 123 -102 123 -176 -1 -163 -159 -245 -322 -167 -126 61 -142 237
-29 326 52 40 156 48 228 17z m8135 -2 c61 -9 117 -17 125 -19 8 -2 43 -6 76
-10 59 -7 62 -9 68 -38 3 -16 5 -31 4 -32 -4 -4 -188 -115 -223 -135 -16 -10
-58 -34 -93 -55 -35 -20 -65 -35 -67 -33 -2 1 -5 17 -8 34 -4 28 -1 33 49 63
30 18 54 36 54 40 0 4 -5 33 -11 64 -13 61 -11 60 -93 71 -43 6 -56 18 -56 54
0 21 4 23 33 18 17 -3 82 -12 142 -22z m337 -528 c10 -97 3 -174 -17 -202 -30
-39 -81 -55 -127 -39 -31 10 -39 10 -55 -5 -63 -57 -160 -43 -198 29 -9 19
-16 65 -17 131 l-3 102 45 3 c25 2 97 6 160 10 63 4 116 7 117 8 1 1 22 2 46
3 l45 1 4 -41z m-8423 -65 c11 -7 14 -28 11 -83 -3 -74 -6 -144 -9 -164 -1
-11 -20 -11 -226 0 -44 3 -106 5 -137 5 -53 1 -58 3 -58 24 0 35 12 45 55 42
22 -1 100 -5 173 -9 l132 -7 1 36 c1 19 3 49 4 65 1 17 3 46 4 65 1 36 19 45
50 26z m8396 -436 c17 -2 33 -3 36 -4 3 0 6 -13 5 -28 -1 -28 -2 -28 -69 -28
-37 0 -100 2 -140 5 -96 8 -115 3 -139 -34 -28 -45 -21 -130 13 -154 29 -20
22 -19 178 -27 69 -4 129 -9 134 -12 4 -2 7 -17 7 -34 l0 -29 -92 5 c-219 12
-236 16 -280 59 -73 74 -54 222 36 277 28 17 44 19 156 13 69 -4 139 -8 155
-9z m-8607 -54 c31 -16 51 -60 56 -122 3 -30 5 -57 5 -60 1 -4 16 -5 34 -4 17
2 55 5 82 6 50 3 50 3 53 -29 3 -25 -1 -32 -15 -33 -10 0 -34 -2 -53 -4 -19
-1 -89 -6 -155 -9 -66 -4 -136 -9 -157 -10 -36 -3 -36 -2 -40 38 -11 102 -4
171 20 201 40 51 105 61 170 26z m267 -467 c6 -34 3 -41 -37 -82 -24 -25 -54
-55 -67 -66 l-24 -20 90 -42 c82 -38 91 -44 95 -73 2 -17 3 -33 1 -35 -3 -2
-55 18 -118 46 l-113 50 -88 -92 -89 -92 -8 42 c-8 41 -8 42 50 101 62 64 72
79 51 79 -11 0 -137 56 -146 65 -4 4 -21 75 -18 75 1 0 54 -23 117 -50 l114
-50 85 89 c47 50 88 90 91 90 4 1 10 -15 14 -35z m8000 -20 c16 -26 16 -27
-14 -53 -37 -32 -47 -73 -22 -95 17 -16 82 -31 256 -61 71 -12 76 -15 72 -40
-1 -14 -6 -27 -9 -31 -5 -4 -105 9 -158 21 -3 1 -25 5 -50 9 -97 16 -148 36
-167 64 -41 59 -22 146 40 190 17 12 32 22 33 22 1 0 9 -12 19 -26z m-85 -460
c36 -28 112 -85 168 -128 75 -57 101 -81 93 -89 -6 -6 -11 -19 -11 -29 0 -15
-9 -18 -62 -19 -35 0 -137 -3 -227 -5 -156 -5 -163 -5 -156 13 4 10 10 26 12
36 4 14 17 17 68 17 l63 0 18 53 c9 28 19 57 21 63 2 6 -19 28 -46 49 -55 40
-56 41 -41 80 7 20 14 24 23 18 6 -6 41 -32 77 -59z m-7762 -146 c22 -68 39
-124 37 -126 -2 -2 -90 -33 -196 -68 -149 -51 -194 -62 -200 -52 -11 18 -82
229 -77 232 1 1 15 7 29 13 26 11 26 11 59 -83 26 -77 36 -94 49 -88 9 3 31
10 49 16 37 10 37 1 -1 116 -11 34 -18 64 -16 66 2 3 16 7 30 11 25 6 27 3 54
-78 l28 -85 58 20 57 19 -29 87 c-16 47 -29 89 -29 92 0 7 38 28 51 29 4 1 25
-54 47 -121z"/>
<path d="M3902 10119 c-52 -26 -75 -62 -74 -116 1 -68 53 -137 120 -158 61
-19 145 35 158 100 15 79 -57 172 -148 190 -9 2 -34 -6 -56 -16z"/>
<path d="M2403 8005 c-17 -12 -60 -112 -51 -120 7 -6 110 -37 112 -34 5 7 29
94 31 111 4 38 -58 67 -92 43z"/>
<path d="M2300 7498 c-34 -18 -70 -75 -70 -110 0 -110 134 -177 237 -118 33
18 44 31 53 67 17 58 4 98 -43 136 -30 25 -49 31 -95 34 -34 2 -67 -1 -82 -9z"/>
<path d="M10643 7450 c4 -18 7 -37 7 -42 0 -5 22 3 50 19 52 29 62 43 33 43
-10 0 -36 3 -57 7 l-39 6 6 -33z"/>
<path d="M10792 6992 c-21 -3 -23 -8 -18 -40 3 -20 5 -47 6 -59 0 -12 7 -29
16 -37 37 -38 92 -3 88 55 -1 19 -3 47 -3 62 -1 29 -10 31 -89 19z"/>
<path d="M10593 6973 c-11 -27 5 -132 21 -149 21 -20 63 -21 82 -2 15 15 18
33 15 121 l-1 47 -56 -2 c-33 -2 -58 -8 -61 -15z"/>
<path d="M2192 6405 c-11 -14 -19 -33 -17 -43 2 -9 4 -33 4 -54 l1 -36 60 1
61 2 -2 59 c-2 42 -8 65 -21 78 -26 26 -63 23 -86 -7z"/>
<path d="M10526 5383 c-2 -10 -7 -28 -11 -40 -5 -19 -2 -21 32 -18 21 2 49 4
62 4 21 1 19 5 -22 36 -53 40 -54 41 -61 18z"/>
<path d="M6309 9976 c-2 -2 -44 -7 -94 -10 -49 -4 -98 -9 -110 -11 -11 -2 -42
-7 -69 -10 -28 -3 -80 -12 -116 -20 -98 -21 -112 -24 -145 -30 -182 -35 -523
-158 -740 -267 -77 -38 -249 -134 -270 -150 -5 -5 -55 -38 -110 -74 -55 -36
-120 -82 -145 -102 -229 -184 -399 -347 -540 -517 -41 -49 -77 -92 -81 -95
-11 -10 -147 -206 -187 -270 -45 -71 -143 -247 -178 -321 -61 -126 -176 -417
-189 -480 -2 -9 -12 -47 -24 -85 -11 -38 -22 -80 -25 -94 -8 -43 -15 -71 -20
-88 -18 -60 -46 -235 -63 -397 -10 -102 -11 -526 0 -625 4 -41 10 -97 13 -125
6 -58 10 -80 18 -115 3 -14 8 -41 10 -60 17 -120 103 -421 168 -590 52 -132
152 -344 209 -441 24 -41 44 -76 44 -79 1 -3 20 -34 44 -70 l42 -65 159 -1
159 -1 -22 31 c-11 17 -24 33 -27 36 -11 9 -85 121 -142 215 -201 332 -357
781 -404 1160 -3 22 -7 49 -9 60 -6 30 -18 260 -18 345 0 78 12 317 18 360 18
132 36 239 50 300 3 14 8 36 11 50 31 153 131 440 216 619 35 74 137 261 171
315 21 34 148 217 162 234 8 10 35 43 61 76 76 95 208 233 335 351 186 174
458 357 710 478 325 155 594 235 989 291 161 23 530 24 700 2 87 -11 136 -18
154 -22 12 -2 37 -7 56 -10 315 -50 739 -208 1029 -384 40 -25 82 -49 92 -55
10 -5 19 -13 19 -17 0 -5 5 -8 12 -8 10 0 33 -16 183 -129 143 -107 403 -360
500 -486 17 -21 42 -52 56 -69 43 -53 129 -175 129 -185 0 -5 4 -11 8 -13 12
-5 103 -159 167 -283 150 -291 267 -661 311 -981 3 -27 8 -60 10 -74 21 -154
20 -570 -1 -701 -2 -13 -6 -46 -10 -73 -5 -45 -27 -166 -41 -226 -3 -14 -7
-36 -10 -50 -17 -83 -98 -349 -124 -405 -5 -11 -19 -44 -30 -73 -62 -162 -207
-424 -328 -595 l-60 -84 157 0 c177 0 153 -11 228 109 96 153 215 398 287 592
35 91 109 339 120 396 2 14 10 48 16 75 6 28 13 59 15 70 21 115 26 151 30
192 3 26 8 80 12 118 15 138 6 704 -11 734 -2 3 -6 29 -10 56 -3 28 -8 61 -11
75 -3 14 -8 41 -11 60 -15 88 -79 327 -118 445 -71 210 -175 439 -283 623 -24
41 -43 77 -43 82 0 5 -3 10 -8 12 -4 2 -42 55 -85 118 -43 63 -92 132 -110
152 -17 20 -40 47 -50 60 -79 103 -287 319 -395 409 -41 35 -79 67 -86 73 -44
41 -295 218 -377 266 -132 77 -271 147 -444 225 -213 95 -639 208 -870 231
-38 3 -79 9 -90 11 -24 6 -540 14 -546 9z"/>
<path d="M7268 9246 c-219 -226 -360 -469 -487 -841 -21 -60 -39 -114 -41
-120 -1 -5 -4 -14 -5 -20 -2 -5 -6 -21 -9 -35 -4 -14 -17 -68 -31 -120 -37
-145 -70 -318 -89 -470 -3 -25 -8 -54 -10 -66 -2 -12 -7 -57 -11 -100 -4 -43
-9 -87 -11 -97 -1 -9 -6 -63 -10 -120 -3 -56 -8 -122 -10 -147 -5 -60 -4 -680
1 -750 2 -30 7 -106 10 -169 4 -63 8 -121 10 -130 2 -9 6 -61 10 -116 4 -55 9
-102 10 -105 2 -3 6 -41 10 -85 4 -44 9 -82 10 -85 2 -3 6 -39 10 -80 8 -88
18 -115 42 -128 26 -14 44 -4 112 58 80 73 78 72 162 128 98 66 234 131 304
147 11 2 52 14 90 25 39 11 86 23 105 25 19 3 46 8 60 11 14 4 120 8 235 10
116 1 218 6 227 9 34 13 28 47 -23 137 -54 94 -175 341 -207 423 -11 28 -38
95 -60 150 -51 128 -145 402 -173 505 -7 25 -14 50 -16 55 -9 30 -113 440
-116 463 -3 15 -12 63 -20 107 -20 99 -24 125 -42 250 -23 159 -25 176 -31
250 -3 39 -7 84 -9 100 -6 40 -6 405 0 480 8 101 14 145 42 287 26 134 26 138
8 158 -21 24 -29 25 -47 6z"/>
<path d="M6580 8518 c-36 -10 -76 -21 -88 -24 -13 -3 -70 -21 -125 -40 -56
-19 -106 -36 -112 -37 -28 -7 -183 -75 -279 -124 -482 -243 -784 -611 -886
-1080 -30 -139 -35 -196 -35 -393 0 -188 5 -243 32 -385 8 -44 17 -91 19 -105
16 -88 106 -380 146 -470 67 -151 82 -175 113 -178 24 -2 41 7 87 50 94 88
111 101 178 144 207 132 440 180 655 133 109 -24 146 -24 160 -1 15 27 14 31
-41 142 -106 212 -167 444 -190 720 -13 154 -8 408 10 520 3 14 7 48 11 75 21
176 93 415 181 600 60 126 129 227 218 318 78 81 92 112 60 138 -23 19 -41 19
-114 -3z"/>
<path d="M4210 5765 c-36 -6 -75 -17 -87 -25 -25 -16 -44 -83 -32 -115 62
-166 136 -341 199 -470 80 -165 188 -364 199 -367 3 -1 928 -2 2054 -3 l2048
-2 33 66 c36 72 92 220 100 263 8 50 -25 64 -179 73 -49 3 -112 7 -140 10 -27
2 -86 7 -130 10 -80 5 -160 12 -225 20 -19 2 -66 7 -105 10 -160 13 -216 19
-300 30 -16 2 -52 7 -80 10 -273 32 -404 48 -480 60 -16 3 -64 9 -105 15 -93
11 -132 17 -245 35 -49 8 -112 17 -140 20 -27 4 -57 8 -65 10 -8 2 -35 7 -60
10 -25 3 -85 13 -135 21 -119 20 -135 23 -165 28 -14 3 -41 7 -60 10 -19 3
-251 43 -515 90 -264 47 -493 88 -510 91 -16 3 -41 7 -55 10 -92 17 -394 65
-435 70 -27 3 -61 7 -75 10 -14 2 -61 7 -105 11 -44 3 -93 7 -110 8 -16 2 -59
-2 -95 -9z"/>
<path d="M1559 4702 c-12 -2 -14 -126 -14 -875 l1 -872 433 -218 c239 -120
436 -215 439 -213 3 3 5 100 5 216 l0 210 26 0 c36 0 7963 1 8087 0 l100 0 1
-210 c0 -116 3 -213 6 -216 6 -6 867 423 868 434 5 37 2 1727 -3 1735 -4 7
-1453 11 -4970 11 -2731 1 -4971 0 -4979 -2z m9424 -196 c114 -56 70 -208 -68
-234 -56 -10 -160 -4 -220 13 -81 23 -293 33 -300 14 -2 -8 -6 -87 -7 -177 -3
-183 -11 -170 83 -152 54 11 71 13 184 30 57 8 164 18 265 25 51 3 90 -16 90
-44 0 -30 -27 -44 -93 -47 -143 -6 -493 -54 -520 -71 -5 -3 -5 -39 -2 -82 4
-42 8 -96 10 -120 2 -24 6 -55 9 -70 3 -14 8 -46 11 -71 10 -75 36 -179 46
-186 5 -3 12 2 15 11 9 24 121 99 184 123 77 30 125 38 200 36 111 -5 197 -51
201 -109 5 -69 -11 -116 -50 -141 -20 -14 -43 -17 -106 -15 -198 7 -251 5
-318 -13 -49 -13 -72 -25 -86 -45 -21 -29 -54 -37 -69 -18 -20 24 -60 137 -81
224 -30 129 -45 244 -60 449 -1 8 -20 5 -58 -7 -77 -26 -101 -25 -115 6 -17
37 10 59 97 83 l70 19 1 114 c3 223 15 423 25 436 19 23 58 16 71 -13 8 -16
18 -24 27 -20 201 62 267 74 411 72 91 -1 123 -5 153 -20z m-8416 -159 c33
-56 82 -143 109 -194 40 -75 52 -90 69 -87 11 2 77 6 146 9 131 5 159 -2 165
-38 5 -36 -29 -47 -156 -52 -67 -2 -124 -6 -127 -8 -2 -3 26 -67 62 -143 85
-178 214 -477 222 -515 16 -83 -142 -192 -227 -155 -48 21 -70 59 -84 151 -2
17 -7 48 -11 70 -3 22 -8 56 -10 75 -3 19 -7 46 -10 60 -2 14 -7 45 -10 70 -3
25 -10 72 -15 105 -6 33 -13 76 -16 95 -3 19 -13 67 -22 105 l-17 70 -35 -1
c-19 0 -64 -3 -100 -7 -36 -3 -80 -6 -99 -6 l-34 -1 7 -192 c4 -106 9 -206 11
-223 5 -38 17 -193 20 -262 4 -100 -39 -149 -130 -146 -93 2 -175 62 -175 127
0 57 46 291 114 575 l24 103 -61 -6 c-34 -4 -87 -9 -117 -12 -52 -6 -57 -5
-67 19 -20 43 4 63 84 71 146 15 178 19 180 21 2 1 21 64 43 141 59 201 105
318 134 336 18 12 70 -48 133 -155z m2389 139 c38 -53 0 -86 -99 -86 -37 0
-66 -3 -64 -7 3 -5 8 -35 12 -68 9 -77 13 -110 19 -160 2 -22 8 -71 11 -110 4
-38 9 -81 11 -95 3 -14 6 -113 9 -220 5 -242 -7 -345 -50 -435 -28 -59 -37
-71 -90 -111 -150 -116 -389 -75 -500 86 -25 37 -30 53 -30 105 0 70 24 115
82 155 46 32 89 23 166 -36 77 -58 119 -76 177 -77 56 -1 94 23 122 76 17 35
20 59 20 166 0 117 -6 242 -18 351 -11 112 -15 146 -19 160 -2 8 -7 44 -10 80
-3 36 -8 74 -10 85 -2 11 -4 26 -4 33 -1 16 -82 12 -370 -19 -113 -12 -114
-12 -132 10 -32 39 -6 77 59 86 26 4 57 8 70 10 54 9 177 19 347 30 61 4 111
8 112 9 1 0 38 1 83 1 69 0 84 -3 96 -19z m2737 -4 c3 -4 8 -54 12 -112 7
-105 10 -147 20 -270 9 -106 16 -183 20 -220 2 -19 7 -64 10 -100 3 -36 8 -76
10 -90 2 -14 7 -54 10 -90 9 -94 43 -331 48 -337 3 -2 55 30 116 72 153 105
202 120 279 90 52 -21 76 -64 76 -137 0 -69 -23 -107 -76 -125 -19 -6 -104
-12 -189 -14 -85 -1 -176 -8 -203 -15 -32 -9 -55 -10 -67 -4 -16 9 -30 55 -43
145 -11 72 -16 113 -22 160 -3 28 -8 58 -10 68 -2 10 -8 64 -14 120 -6 56 -13
118 -15 137 -3 19 -7 62 -10 95 -4 59 -12 141 -20 220 -8 79 -18 251 -19 330
-1 74 0 80 23 91 24 12 52 6 64 -14z m-4441 -6 c4 -6 8 -29 9 -51 1 -22 2 -55
2 -72 1 -18 2 -33 3 -33 2 0 30 18 64 41 100 66 187 93 300 94 84 0 102 -3
152 -28 64 -31 90 -62 105 -123 13 -54 7 -109 -19 -162 -24 -50 -111 -148
-163 -183 -37 -25 -49 -47 -15 -29 27 15 147 16 196 2 114 -33 177 -126 175
-258 0 -28 -9 -72 -20 -97 -22 -50 -108 -142 -157 -167 -16 -8 -45 -24 -64
-35 -51 -31 -192 -89 -293 -122 l-88 -28 6 -32 c11 -61 -57 -93 -83 -40 -14
28 -45 139 -67 236 -36 165 -81 458 -100 657 -4 38 -9 83 -10 99 -2 17 -6 96
-10 176 -7 130 -6 147 10 162 18 18 53 15 67 -7z m2542 -11 c24 -14 60 -44 80
-65 31 -35 155 -199 233 -308 23 -32 33 -39 41 -30 18 23 81 140 154 286 39
79 77 146 85 149 26 10 63 -7 69 -31 7 -28 -54 -160 -172 -373 -41 -73 -74
-138 -74 -143 0 -5 51 -87 113 -182 142 -216 266 -418 307 -495 67 -127 36
-186 -64 -123 -19 11 -145 134 -280 272 -147 150 -250 248 -255 242 -5 -5 -44
-61 -87 -124 -145 -216 -312 -420 -343 -420 -58 0 -67 59 -18 112 51 56 73 82
151 186 73 98 213 302 222 325 4 12 -18 39 -130 157 -203 217 -276 329 -289
447 -6 49 15 112 45 136 35 27 151 18 212 -18z m1124 18 c9 -16 7 -183 -2
-225 -2 -10 0 -18 5 -18 5 0 9 4 9 9 0 17 127 96 202 127 131 53 248 41 322
-33 89 -89 107 -216 48 -334 -67 -135 -206 -237 -379 -277 -15 -3 -66 -6 -111
-6 l-84 -1 7 -96 c3 -53 8 -112 10 -130 10 -90 17 -156 20 -174 1 -11 6 -47 9
-80 4 -33 9 -67 11 -75 6 -20 -5 -36 -31 -44 -25 -8 -54 15 -55 42 0 9 -2 26
-5 37 -2 11 -6 43 -9 70 -3 28 -8 61 -10 75 -2 14 -7 59 -10 100 -4 41 -9 86
-10 100 -23 195 -28 889 -7 928 15 27 57 30 70 5z m1947 -7 c94 -43 177 -148
230 -290 23 -60 30 -86 50 -181 15 -68 14 -300 -1 -385 -65 -361 -276 -565
-487 -472 -126 56 -229 221 -275 442 -28 136 -25 359 7 485 83 322 283 491
476 401z m494 10 c8 -10 10 -49 6 -131 -5 -109 -5 -116 11 -101 26 26 125 90
174 113 70 32 115 42 188 40 86 -3 150 -38 193 -105 53 -84 63 -164 30 -257
-38 -109 -146 -218 -266 -270 -58 -25 -163 -54 -169 -47 -20 19 1 -24 42 -88
99 -154 240 -303 365 -387 86 -57 96 -68 90 -93 -11 -42 -39 -44 -102 -6 -133
81 -279 222 -384 372 -47 68 -112 177 -112 190 0 1 -13 4 -28 8 l-29 7 6 -68
c4 -37 9 -97 12 -133 2 -36 7 -83 9 -105 7 -58 17 -137 20 -160 17 -122 17
-119 -4 -133 -27 -16 -59 -1 -66 31 -12 53 -39 278 -50 412 -24 308 -25 875
-1 914 10 16 51 14 65 -3z"/>
<path d="M2437 4358 c-24 -57 -41 -138 -52 -240 -7 -67 -6 -85 6 -81 4 1 42 5
85 9 88 6 125 11 130 17 13 13 -110 291 -140 316 -13 11 -17 8 -29 -21z"/>
<path d="M3390 4281 c-59 -17 -101 -38 -112 -55 -4 -6 -6 -29 -3 -51 2 -22 7
-71 10 -110 8 -89 23 -196 28 -201 5 -5 68 17 132 46 177 81 252 325 112 369
-57 17 -111 18 -167 2z"/>
<path d="M3405 3784 c-5 -1 -26 -5 -47 -8 -34 -6 -36 -8 -32 -39 5 -28 23
-138 39 -232 4 -24 22 -104 41 -187 1 -5 2 -11 3 -15 6 -32 19 -34 85 -9 164
62 275 181 278 298 2 119 -119 202 -289 197 -37 -1 -72 -3 -78 -5z"/>
<path d="M7011 4199 c-40 -10 -79 -23 -86 -29 -8 -7 -10 -58 -8 -187 2 -97 6
-179 8 -182 3 -2 28 -3 56 -2 169 6 341 212 286 343 -29 70 -125 91 -256 57z"/>
<path d="M8621 4179 c-97 -59 -154 -202 -150 -377 3 -182 65 -318 162 -362 75
-34 147 -6 205 79 59 87 76 155 76 301 0 84 -4 119 -23 175 -58 170 -168 246
-270 184z"/>
<path d="M9529 4216 c-2 -2 -20 -6 -40 -9 -20 -2 -58 -12 -83 -22 -38 -15 -46
-22 -47 -44 -1 -47 3 -255 6 -286 1 -16 3 -37 4 -46 1 -12 11 -15 43 -12 132
10 234 84 289 208 51 116 7 198 -113 210 -30 3 -56 4 -59 1z"/>
<path d="M3051 2870 l-44 -5 53 -45 c30 -25 64 -56 77 -69 78 -77 508 -401
532 -401 5 0 14 -6 18 -12 8 -13 21 -22 83 -58 53 -31 74 -44 80 -51 23 -29
654 -349 687 -349 3 0 19 -7 36 -14 134 -61 545 -198 694 -231 10 -2 61 -13
113 -25 126 -29 125 -29 199 -41 36 -5 67 -11 70 -13 3 -2 26 -7 51 -10 25 -3
56 -8 70 -10 31 -5 190 -25 245 -31 302 -30 876 -25 1115 10 39 5 91 12 160
20 25 3 52 7 60 10 8 2 35 7 60 10 24 4 47 8 50 10 3 2 21 6 41 9 20 3 90 17
155 31 66 14 130 28 144 31 55 12 336 97 430 132 8 3 20 6 26 7 56 13 534 217
594 255 8 5 35 19 60 31 54 26 261 142 310 174 219 142 282 185 390 265 127
95 258 201 340 276 25 23 59 54 75 68 l30 25 -60 0 -60 1 -114 -100 c-63 -55
-117 -100 -120 -100 -3 0 -20 -13 -37 -28 -17 -15 -43 -36 -59 -47 -15 -11
-55 -41 -88 -66 -174 -128 -371 -252 -577 -361 -58 -31 -132 -70 -165 -88 -33
-17 -86 -43 -118 -56 -32 -14 -87 -38 -123 -54 -35 -17 -70 -30 -77 -30 -7 0
-17 -4 -22 -8 -6 -5 -32 -17 -60 -27 -27 -9 -63 -23 -80 -30 -77 -32 -381
-129 -471 -150 -10 -2 -73 -17 -139 -34 -104 -25 -210 -46 -332 -66 -18 -3
-45 -7 -60 -10 -16 -2 -48 -7 -73 -10 -25 -3 -65 -8 -90 -11 -24 -4 -56 -8
-70 -9 -212 -27 -859 -27 -1055 0 -16 2 -52 7 -80 10 -59 7 -178 24 -220 31
-16 2 -57 9 -90 15 -183 30 -485 108 -685 176 -422 143 -774 311 -1156 554
-75 48 -249 169 -289 201 -5 5 -28 22 -50 39 -61 46 -167 132 -257 210 -62 54
-69 56 -127 49z"/>
<path d="M3377 2872 c-20 -4 42 -57 213 -184 186 -137 335 -234 550 -357 212
-122 580 -283 835 -366 232 -76 548 -156 710 -179 22 -4 65 -11 95 -16 67 -11
114 -17 205 -26 39 -4 84 -8 100 -10 232 -24 743 -23 895 1 14 2 59 7 100 10
89 7 289 38 415 65 50 10 101 21 115 24 203 38 584 160 860 276 125 52 350
165 481 241 68 40 135 78 149 85 93 49 606 421 595 432 -4 5 -6294 8 -6318 4z"/>
</g>
</svg>
